<!-- icon666.com - MILLIONS vector ICONS FREE --><svg version="1.1" id="Capa_1" xmlns="http://www.w3.org/2000/svg" xmlns:xlink="http://www.w3.org/1999/xlink" x="0px" y="0px" viewBox="0 0 512 512" style="enable-background:new 0 0 512 512;" xml:space="preserve"><linearGradient id="SVGID_1_" gradientUnits="userSpaceOnUse" x1="0" y1="258.0008" x2="512.0005" y2="258.0008" gradientTransform="matrix(1 0 0 -1 0 514.001)"><stop offset="0" style="stop-color:#80D8FF"></stop><stop offset="1" style="stop-color:#EA80FC"></stop></linearGradient><path style="fill:url(#SVGID_1_);" d="M487.103,24.954c-33.274-33.269-87.129-33.273-120.407,0L51.949,339.665 c-2.098,2.097-3.834,4.825-4.831,7.817L1.057,485.647c-5.2,15.598,9.679,30.503,25.298,25.296l138.182-46.055 c2.922-0.974,5.665-2.678,7.819-4.831l314.748-314.711C520.299,112.154,520.299,58.146,487.103,24.954z M51.654,460.352 l23.177-69.525l46.356,46.35L51.654,460.352z M158.214,417.635l-63.837-63.829l267.272-267.24l63.837,63.83L158.214,417.635z M458.818,117.065l-5.049,5.049l-63.837-63.83l5.049-5.048c17.602-17.597,46.239-17.597,63.837,0 C476.418,70.833,476.418,99.467,458.818,117.065z"></path></svg>